<svg width="512" height="512" viewBox="0 0 512 512" fill="none" xmlns="http://www.w3.org/2000/svg">
  <rect width="512" height="512" rx="100" fill="#0a0f1a"/>
  <rect x="40" y="40" width="432" height="432" rx="60" fill="url(#gradient)"/>
  <path d="M256 96c-88.4 0-160 71.6-160 160 0 28.3 7.4 54.8 20.3 77.8L96 416l84.6-22.2c22.1 12.1 47.4 19 74.4 19 88.4 0 160-71.6 160-160S344.4 96 256 96z" fill="#25D366"/>
  <path d="M340 292c-4-2-23.6-11.6-27.2-13-3.6-1.4-6.2-2-8.8 2s-10.2 13-12.4 15.6c-2.2 2.6-4.6 3-8.6 1s-16.8-6.2-32-19.8c-11.8-10.6-19.8-23.6-22.2-27.6s-.4-6.2 1.8-8.2c2-1.8 4.4-4.8 6.6-7.2 2.2-2.4 3-4 4.4-6.6 1.4-2.6.8-5-0.4-7s-8.8-21.4-12-29.2c-3.2-7.8-6.4-6.6-8.8-6.8-2.2-.2-4.8-.2-7.4-.2s-6.8 1-10.4 5c-3.6 4-13.6 13.2-13.6 32.4s14 37.6 15.8 40.2c2 2.6 27.4 41.8 66.2 58.6 9.2 4 16.4 6.4 22 8.2 9.2 3 17.6 2.6 24.2 1.6 7.4-1.2 23.6-9.6 27-19 3.4-9.4 3.4-17.4 2.4-19-.8-1.6-3.4-2.6-7.4-4.6z" fill="white"/>
  <defs>
    <linearGradient id="gradient" x1="40" y1="40" x2="472" y2="472" gradientUnits="userSpaceOnUse">
      <stop stop-color="#128C7E"/>
      <stop offset="1" stop-color="#25D366"/>
    </linearGradient>
  </defs>
</svg>
